<svg width="1920" height="1080" viewBox="0 0 1920 1080" fill="none" xmlns="http://www.w3.org/2000/svg">
<g opacity="0.1">
<path d="M888.457 -239.46C1428.81 -52.9346 669.267 260.605 933.807 650.893C1176.24 1008.57 2172.12 664.548 1803.85 1456.62C1551.72 1998.92 1615.8 2246.98 2007.42 2495.05" stroke="black" stroke-width="3"/>
<path d="M930.411 -260.212C1470.77 -73.6865 711.221 239.853 975.761 630.141C1218.2 987.818 2214.07 643.796 1845.81 1435.87C1593.68 1978.16 1657.75 2226.23 2049.37 2474.3" stroke="black" stroke-width="3"/>
<path d="M972.365 -280.964C1512.72 -94.4384 753.175 219.101 1017.72 609.389C1260.15 967.066 2256.03 623.044 1887.76 1415.12C1635.63 1957.41 1699.71 2205.48 2091.33 2453.54" stroke="black" stroke-width="3"/>
<path d="M1014.32 -301.716C1554.67 -115.19 795.129 198.349 1059.67 588.637C1302.11 946.314 2297.98 602.292 1929.71 1394.37C1677.58 1936.66 1741.66 2184.73 2133.28 2432.79" stroke="black" stroke-width="3"/>
<path d="M1056.27 -322.468C1596.63 -135.942 837.083 177.597 1101.62 567.885C1344.06 925.562 2339.93 581.54 1971.67 1373.62C1719.54 1915.91 1783.61 2163.98 2175.23 2412.04" stroke="black" stroke-width="3"/>
<path d="M1098.23 -343.22C1638.58 -156.694 879.037 156.845 1143.58 547.134C1386.01 904.81 2381.89 560.788 2013.62 1352.86C1761.49 1895.16 1825.57 2143.22 2217.19 2391.29" stroke="black" stroke-width="3"/>
<path d="M1140.18 -363.972C1680.54 -177.447 920.991 136.093 1185.53 526.381C1427.97 884.058 2423.84 540.036 2055.58 1332.11C1803.45 1874.4 1867.52 2122.47 2259.14 2370.54" stroke="black" stroke-width="3"/>
<path d="M1182.13 -384.724C1722.49 -198.198 962.944 115.341 1227.48 505.629C1469.92 863.306 2465.8 519.284 2097.53 1311.36C1845.4 1853.65 1909.48 2101.72 2301.1 2349.78" stroke="black" stroke-width="3"/>
<path d="M1224.09 -405.476C1764.44 -218.95 1004.9 94.5893 1269.44 484.877C1511.88 842.554 2507.75 498.532 2139.48 1290.61C1887.35 1832.9 1951.43 2080.97 2343.05 2329.03" stroke="black" stroke-width="3"/>
<path d="M1266.04 -426.228C1806.4 -239.702 1046.85 73.8372 1311.39 464.125C1553.83 821.802 2549.7 477.78 2181.44 1269.86C1929.31 1812.15 1993.39 2060.22 2385 2308.28" stroke="black" stroke-width="3"/>
<path d="M1308 -446.98C1848.35 -260.454 1088.81 53.0853 1353.35 443.373C1595.78 801.05 2591.66 457.028 2223.39 1249.1C1971.26 1791.4 2035.34 2039.46 2426.96 2287.53" stroke="black" stroke-width="3"/>
<path d="M1349.95 -467.732C1890.31 -281.206 1130.76 32.3334 1395.3 422.621C1637.74 780.298 2633.61 436.276 2265.35 1228.35C2013.21 1770.64 2077.29 2018.71 2468.91 2266.78" stroke="black" stroke-width="3"/>
<path d="M1391.91 -488.484C1932.26 -301.959 1172.72 11.5809 1437.26 401.869C1679.69 759.546 2675.57 415.523 2307.3 1207.6C2055.17 1749.89 2119.25 1997.96 2510.87 2246.02" stroke="black" stroke-width="3"/>
<path d="M1433.86 -509.236C1974.21 -322.711 1214.67 -9.17109 1479.21 381.117C1721.65 738.794 2717.52 394.771 2349.25 1186.85C2097.12 1729.14 2161.2 1977.21 2552.82 2225.27" stroke="black" stroke-width="3"/>
<path d="M1475.81 -529.988C2016.17 -343.462 1256.62 -29.9226 1521.16 360.366C1763.6 718.042 2759.47 374.02 2391.21 1166.1C2139.08 1708.39 2203.15 1956.46 2594.77 2204.52" stroke="black" stroke-width="3"/>
<path d="M1517.77 -550.74C2058.12 -364.215 1298.58 -50.675 1563.12 339.613C1805.55 697.29 2801.43 353.267 2433.16 1145.34C2181.03 1687.64 2245.11 1935.7 2636.73 2183.77" stroke="black" stroke-width="3"/>
<path d="M1559.72 -571.492C2100.08 -384.966 1340.53 -71.4268 1605.07 318.861C1847.51 676.538 2843.38 332.516 2475.12 1124.59C2222.98 1666.88 2287.06 1914.95 2678.68 2163.02" stroke="black" stroke-width="3"/>
<path d="M1601.67 -592.244C2142.03 -405.719 1382.48 -92.179 1647.03 298.109C1889.46 655.786 2885.34 311.764 2517.07 1103.84C2264.94 1646.13 2329.02 1894.2 2720.64 2142.26" stroke="black" stroke-width="3"/>
<path d="M1643.63 -612.996C2183.98 -426.471 1424.44 -112.931 1688.98 277.357C1931.42 635.034 2927.29 291.012 2559.02 1083.09C2306.89 1625.38 2370.97 1873.45 2762.59 2121.51" stroke="black" stroke-width="3"/>
<path d="M1685.58 -633.748C2225.94 -447.223 1466.39 -133.683 1730.93 256.605C1973.37 614.282 2969.24 270.26 2600.98 1062.34C2348.85 1604.63 2412.92 1852.7 2804.54 2100.76" stroke="black" stroke-width="3"/>
</g>
</svg>
